<svg id="Capa_1" enable-background="new 0 0 512 512" height="512" viewBox="0 0 512 512" width="512" xmlns="http://www.w3.org/2000/svg"><g><g><path fill="#fff" d="m512 177.25v-140c0-12.407-10.094-22.5-22.5-22.5h-140c-12.406 0-22.5 10.093-22.5 22.5v140c0 2.629.458 5.153 1.29 7.5h-78.34c-6.011 0-11.66 2.34-15.91 6.59-4.24 4.25-6.58 9.9-6.59 15.91v22.5c.01 5.88 2.26 11.44 6.35 15.65 3.943 4.069 9.195 6.448 14.838 6.775.04.004.081.006.121.01.141.007.279.03.421.034h.01l.101.01c.149.01.359.02.66.02h133.015v15.25c-24.683 1.477-47.929 10.216-67.622 25.547-3.269 2.544-3.855 7.257-1.311 10.525 2.545 3.269 7.258 3.855 10.525 1.311 19.019-14.806 41.81-22.632 65.907-22.632 53.344 0 99.116 39.804 106.471 92.587.549 3.944-2.511 7.413-6.445 7.413h-299.289c.549-2.84.428-5.81-.41-8.706-11.386-39.354-43.577-66.673-80.695-73.845l11.973-90.95-.006-.001c.108-.821.09-1.672-.091-2.529-.856-4.053-4.835-6.644-8.888-5.788-2.57.542-5.181.818-7.76.818-2.345 0-4.338-1.599-4.847-3.888l-14.461-65.07c-.689-3.104 1.666-6.042 4.847-6.042h13.721c11.057 0 21.581 4.834 28.8 12.921-3.819 4.159-5.932 9.503-5.93 15.184.002 9.578 5.932 17.618 14.176 20.9l-14.142 107.226c-.449 3.47 1.521 6.76 4.801 8 33.029 12.45 58.77 38.61 70.609 71.79 1.061 2.98 3.9 4.98 7.061 4.98h24.479c6.011 0 11.66-2.34 15.91-6.59s6.59-9.9 6.59-15.91v-70.03c0-4.13-3.359-7.49-7.5-7.49-4.13 0-7.5 3.36-7.5 7.49v70.03c-.01 4.13-3.37 7.49-7.5 7.5h-19.3c-13.418-33.468-39.406-59.601-72.01-73.58l13.555-102.843c9.024-2.816 15.769-11.257 15.769-21.473-.002-13.577-11.89-24.038-25.458-22.27-10.018-12.97-25.792-20.834-42.41-20.834h-13.721c-12.785 0-22.257 11.839-19.489 24.296l14.461 65.071c2.046 9.205 10.061 15.633 19.489 15.633.21 0 .421-.014.631-.017l-10.755 81.696c-21.765-1.045-43.516 4.691-61.958 16.504-8.25 5.284-10.288 15.831-5.73 23.627-17.576 16.938-27.513 40.081-27.513 64.69 0 49.626 40.374 90 90 90s90-40.374 90-90c0-1.826-.074-3.663-.188-5.5h103.418c3.864 55.79 50.48 100 107.234 100 57.188 0 104.083-44.889 107.315-101.281 9.57-3.451 15.415-13.116 14.012-23.202-8.035-57.664-56.3-101.728-113.827-105.278v-22.764h-.516c-.014-4.128-3.368-7.474-7.499-7.474h-139.829c-.08 0-.221-.01-.42-.02-4.07-.14-7.25-3.42-7.25-7.48v-22.5c.01-4.13 3.38-7.49 7.5-7.5h140c4.13.01 7.5 3.37 7.5 7.5v16.06c0 4.13 3.369 7.5 7.5 7.5 4.14 0 7.5-3.37 7.5-7.5v-16.06c0-2.599-.463-5.12-1.303-7.5h78.353c12.406-.001 22.5-10.094 22.5-22.501zm-354.547-22.895c0 4.128-3.333 7.495-7.489 7.499-.002 0-.004 0-.006 0-4.144 0-7.503-3.355-7.503-7.501-.002-4.222 3.429-7.481 7.495-7.481 4.163-.001 7.503 3.333 7.503 7.483zm-116.119 172.709c50.63-32.43 118.281-7.299 135.05 50.649.66 2.28-1.004 4.537-3.353 4.537h-32.15c-7.45 0-14.798-1.969-21.25-5.694-8.903-5.14-68.388-39.484-78.253-45.179-1.634-.944-1.671-3.27-.044-4.313zm48.666 150.686c-41.355 0-75-33.645-75-75 0-21.146 8.816-41 24.346-55.226l35.933 20.745c-13.942 5.933-22.811 19.628-22.778 34.48-.045 20.465 16.607 37.5 37.47 37.5h.07c9.882 0 19.421-3.921 26.479-10.98 0-.01 0-.01 0-.01 2.92-2.93 2.92-7.68 0-10.6-1.42-1.42-3.3-2.2-5.31-2.2-2 0-3.88.78-5.3 2.2-4.25 4.24-9.9 6.58-15.91 6.59-12.397-.021-22.48-9.991-22.5-22.5.02-12.348 9.933-22.48 22.54-22.5 5.989.01 11.62 2.35 15.87 6.59 3.06 3.07 5.159 6.91 6.079 11.11.74 3.43 3.82 5.92 7.32 5.92.54 0 1.07-.06 1.601-.18 3.804-.819 6.301-4.413 5.854-8.21 4.599 1.165 9.341 1.77 14.116 1.77h23.908c.136 1.838.211 3.675.211 5.5.001 41.356-33.644 75.001-74.999 75.001zm300.465 4.5c-48.48 0-88.364-37.49-92.195-85h37.72c3.686 27.012 26.864 47.5 54.47 47.5 17.569 0 34.029-8.401 44.38-22.54 2.414-3.268 1.778-7.976-1.61-10.48-3.405-2.489-8.089-1.66-10.49 1.61-7.659 10.43-19.42 16.41-32.279 16.41-19.675 0-35.812-14.209-39.287-32.5h131.486c-3.831 47.51-43.715 85-92.195 85zm-40.965-297.5c-4.136 0-7.5-3.364-7.5-7.5v-140c0-4.136 3.364-7.5 7.5-7.5h140c4.136 0 7.5 3.364 7.5 7.5v140c0 4.136-3.364 7.5-7.5 7.5-5.733 0-133.539 0-140 0z"/><path fill="#fff" d="m459.482 138.989c4.143 0 7.5-3.358 7.5-7.5s-3.357-7.5-7.5-7.5h-6.98v-23.526c.999.464 2.076.704 3.156.704 1.919 0 3.839-.732 5.303-2.197 2.93-2.929 2.93-7.677.001-10.606-.557-.558-10.724-10.772-11.345-11.258-3.063-2.4-7.313-2.005-9.918.601l-10.656 10.657c-2.929 2.929-2.929 7.678.001 10.606 2.288 2.289 5.684 2.781 8.459 1.492v23.526h-36.004v-23.526c.999.464 2.076.704 3.156.704 1.919 0 3.839-.732 5.303-2.197 2.93-2.929 2.93-7.677.001-10.606-2.675-2.675-10.688-10.684-10.702-10.698-2.951-2.901-7.661-2.858-10.562.042l-10.656 10.657c-2.929 2.929-2.929 7.678.001 10.606 2.288 2.289 5.684 2.781 8.459 1.492v23.526h-6.98c-4.143 0-7.5 3.358-7.5 7.5s3.357 7.5 7.5 7.5h79.963z"/></g></g></svg>