<svg id="Capa_1" enable-background="new 0 0 512 512" height="512" viewBox="0 0 512 512" width="512" xmlns="http://www.w3.org/2000/svg"><g><path fill="darkgreen" d="m104.752 222.875h22c12.407 0 22.5-10.094 22.5-22.5v-19.375c0-12.406-10.093-22.5-22.5-22.5h-22c-12.407 0-22.5 10.094-22.5 22.5v19.375c0 12.406 10.093 22.5 22.5 22.5zm-7.5-41.875c0-4.136 3.364-7.5 7.5-7.5h22c4.136 0 7.5 3.364 7.5 7.5v19.375c0 4.136-3.364 7.5-7.5 7.5h-22c-4.136 0-7.5-3.364-7.5-7.5z"/><path fill="darkgreen" d="m164.252 200.375c0 12.406 10.093 22.5 22.5 22.5h22c12.407 0 22.5-10.094 22.5-22.5v-19.375c0-12.406-10.093-22.5-22.5-22.5h-22c-12.407 0-22.5 10.094-22.5 22.5zm15-19.375c0-4.136 3.364-7.5 7.5-7.5h22c4.136 0 7.5 3.364 7.5 7.5v19.375c0 4.136-3.364 7.5-7.5 7.5h-22c-4.136 0-7.5-3.364-7.5-7.5z"/><path fill="darkgreen" d="m268.752 222.875h22c12.406 0 22.5-10.094 22.5-22.5v-19.375c0-12.406-10.094-22.5-22.5-22.5h-22c-12.406 0-22.5 10.094-22.5 22.5v19.375c0 12.406 10.093 22.5 22.5 22.5zm-7.499-41.875c0-4.136 3.364-7.5 7.499-7.5h22c4.136 0 7.5 3.364 7.5 7.5v19.375c0 4.136-3.364 7.5-7.5 7.5h-22c-4.135 0-7.499-3.364-7.499-7.5z"/><path fill="darkgreen" d="m82.252 279.75c0 12.406 10.093 22.5 22.5 22.5h22c12.407 0 22.5-10.094 22.5-22.5v-19.375c0-12.406-10.093-22.5-22.5-22.5h-22c-12.407 0-22.5 10.094-22.5 22.5zm15-19.375c0-4.136 3.364-7.5 7.5-7.5h22c4.136 0 7.5 3.364 7.5 7.5v19.375c0 4.136-3.364 7.5-7.5 7.5h-22c-4.136 0-7.5-3.364-7.5-7.5z"/><path fill="darkgreen" d="m164.252 279.75c0 12.406 10.093 22.5 22.5 22.5h22c12.407 0 22.5-10.094 22.5-22.5v-19.375c0-12.406-10.093-22.5-22.5-22.5h-22c-12.407 0-22.5 10.094-22.5 22.5zm15-19.375c0-4.136 3.364-7.5 7.5-7.5h22c4.136 0 7.5 3.364 7.5 7.5v19.375c0 4.136-3.364 7.5-7.5 7.5h-22c-4.136 0-7.5-3.364-7.5-7.5z"/><path fill="darkgreen" d="m82.252 359.125c0 12.406 10.093 22.5 22.5 22.5h22c12.407 0 22.5-10.094 22.5-22.5v-19.375c0-12.406-10.093-22.5-22.5-22.5h-22c-12.407 0-22.5 10.094-22.5 22.5zm15-19.375c0-4.136 3.364-7.5 7.5-7.5h22c4.136 0 7.5 3.364 7.5 7.5v19.375c0 4.136-3.364 7.5-7.5 7.5h-22c-4.136 0-7.5-3.364-7.5-7.5z"/><path fill="darkgreen" d="m164.252 359.125c0 12.406 10.093 22.5 22.5 22.5h22c12.407 0 22.5-10.094 22.5-22.5v-19.375c0-12.406-10.093-22.5-22.5-22.5h-22c-12.407 0-22.5 10.094-22.5 22.5zm15-19.375c0-4.136 3.364-7.5 7.5-7.5h22c4.136 0 7.5 3.364 7.5 7.5v19.375c0 4.136-3.364 7.5-7.5 7.5h-22c-4.136 0-7.5-3.364-7.5-7.5z"/><path fill="darkgreen" d="m164.252 438.5c0 12.406 10.093 22.5 22.5 22.5h22c12.407 0 22.5-10.094 22.5-22.5v-19.375c0-12.406-10.093-22.5-22.5-22.5h-22c-12.407 0-22.5 10.094-22.5 22.5zm15-19.375c0-4.136 3.364-7.5 7.5-7.5h22c4.136 0 7.5 3.364 7.5 7.5v19.375c0 4.136-3.364 7.5-7.5 7.5h-22c-4.136 0-7.5-3.364-7.5-7.5z"/><path fill="darkgreen" d="m246.252 279.75c0 12.406 10.093 22.5 22.5 22.5h22c12.406 0 22.5-10.094 22.5-22.5v-19.375c0-12.406-10.094-22.5-22.5-22.5h-22c-12.406 0-22.5 10.094-22.5 22.5zm15.001-19.375c0-4.136 3.364-7.5 7.499-7.5h22c4.136 0 7.5 3.364 7.5 7.5v19.375c0 4.136-3.364 7.5-7.5 7.5h-22c-4.135 0-7.499-3.364-7.499-7.5z"/><path fill="darkgreen" d="m246.252 359.125c0 12.406 10.093 22.5 22.5 22.5h22c12.406 0 22.5-10.094 22.5-22.5v-19.375c0-12.406-10.094-22.5-22.5-22.5h-22c-12.406 0-22.5 10.094-22.5 22.5zm15.001-19.375c0-4.136 3.364-7.5 7.499-7.5h22c4.136 0 7.5 3.364 7.5 7.5v19.375c0 4.136-3.364 7.5-7.5 7.5h-22c-4.135 0-7.499-3.364-7.499-7.5z"/><path fill="darkgreen" d="m246.252 438.5c0 12.406 10.093 22.5 22.5 22.5h22c12.406 0 22.5-10.094 22.5-22.5v-19.375c0-12.406-10.094-22.5-22.5-22.5h-22c-12.406 0-22.5 10.094-22.5 22.5zm15.001-19.375c0-4.136 3.364-7.5 7.499-7.5h22c4.136 0 7.5 3.364 7.5 7.5v19.375c0 4.136-3.364 7.5-7.5 7.5h-22c-4.135 0-7.499-3.364-7.499-7.5z"/><path fill="darkgreen" d="m82.252 438.5c0 12.406 10.093 22.5 22.5 22.5h22c12.407 0 22.5-10.094 22.5-22.5v-19.375c0-12.406-10.093-22.5-22.5-22.5h-22c-12.407 0-22.5 10.094-22.5 22.5zm15-19.375c0-4.136 3.364-7.5 7.5-7.5h22c4.136 0 7.5 3.364 7.5 7.5v19.375c0 4.136-3.364 7.5-7.5 7.5h-22c-4.136 0-7.5-3.364-7.5-7.5z"/><path fill="darkgreen" d="m305.252 88.5v-36.875c0-12.406-10.094-22.5-22.5-22.5h-171c-12.407 0-22.5 10.094-22.5 22.5v36.875c0 12.406 10.093 22.5 22.5 22.5h171c12.406 0 22.5-10.094 22.5-22.5zm-201 0v-36.875c0-4.136 3.364-7.5 7.5-7.5h171c4.136 0 7.5 3.364 7.5 7.5v36.875c0 4.136-3.364 7.5-7.5 7.5h-171c-4.136 0-7.5-3.364-7.5-7.5z"/><path fill="darkgreen" d="m423.248 70.005h-79.996v14.999h79.996c12.406 0 22.5 10.093 22.5 22.5v296.991c0 12.406-10.094 22.5-22.5 22.5h-79.996v15.001h79.996c20.678-.001 37.5-16.823 37.5-37.501v-296.99c0-20.679-16.822-37.5-37.5-37.5z"/><path fill="darkgreen" d="m422.881 348.66c0-26.191-21.309-47.5-47.5-47.5s-47.5 21.309-47.5 47.5c0 8.353 2.201 16.569 6.364 23.763 2.075 3.585 6.663 4.81 10.248 2.734 3.586-2.076 4.809-6.665 2.734-10.248-2.843-4.913-4.346-10.532-4.346-16.249 0-17.921 14.58-32.5 32.5-32.5s32.5 14.579 32.5 32.5-14.58 32.5-32.5 32.5c-3.203 0-6.364-.464-9.397-1.378-3.966-1.195-8.15 1.05-9.346 5.016-1.195 3.966 1.05 8.15 5.016 9.346 4.438 1.338 9.057 2.017 13.727 2.017 26.191-.001 47.5-21.309 47.5-47.501z"/><path fill="darkgreen" d="m423.248 70.004h-49.994v-32.504c0-20.678-16.822-37.5-37.5-37.5h-30.002-217c-20.678 0-37.5 16.822-37.5 37.5v96c0 8.271 6.729 15 15 15h92.5c4.142 0 7.5-3.357 7.5-7.5s-3.358-7.5-7.5-7.5h-92.5v-96c0-12.406 10.093-22.5 22.5-22.5h217c12.406 0 22.5 10.094 22.5 22.5 0 4.143 3.357 7.5 7.5 7.5s7.5-3.357 7.5-7.5c0-8.436-2.801-16.228-7.52-22.5h.022c12.406 0 22.5 10.094 22.5 22.5v32.504h-15.002v-2.5c0-4.143-3.357-7.5-7.5-7.5s-7.5 3.357-7.5 7.5v65.996h-92.5c-4.142 0-7.5 3.357-7.5 7.5s3.358 7.5 7.5 7.5h92.5v54.514h-.006c0 .077.005.153.006.23v105.183c0 .078-.006.154-.006.231 0 .06.006.119.006.178v39.594c0 .078-.006.154-.006.231s.005.153.006.231v95.606c0 4.143 3.357 7.5 7.5 7.5s7.5-3.357 7.5-7.5v-2.502h15.002v32.504c0 12.406-10.094 22.5-22.5 22.5h-.022c4.719-6.272 7.52-14.064 7.52-22.5 0-4.143-3.357-7.5-7.5-7.5s-7.5 3.357-7.5 7.5c0 12.406-10.094 22.5-22.5 22.5h-217c-12.407 0-22.5-10.094-22.5-22.5v-304.5c0-4.143-3.358-7.5-7.5-7.5s-7.5 3.357-7.5 7.5v304.5c0 20.678 16.822 37.5 37.5 37.5h217 30.002c20.678 0 37.5-16.822 37.5-37.5v-32.504h49.994c20.678 0 37.5-16.822 37.5-37.5v-296.992c0-20.678-16.822-37.5-37.5-37.5zm-79.996 77.996v-5.102c.063-4.082 3.397-7.384 7.494-7.384h30c4.136 0 7.5 3.364 7.5 7.5v7.486h-44.994zm29.994 32.515v-15.015h15v37.514c0 4.136-3.364 7.5-7.5 7.5h-7.5v-14.999c4.143 0 7.5-3.357 7.5-7.5s-3.357-7.5-7.5-7.5zm-29.994-15.015h14.994v15.015c-4.143 0-7.5 3.357-7.5 7.5s3.357 7.5 7.5 7.5v14.999h-7.5c-4.097 0-7.432-3.302-7.494-7.384zm102.496 238.996c0 12.406-10.094 22.5-22.5 22.5h-79.996v-24.169h-.378v-161.827h.378v-16.773c2.346.831 4.867 1.288 7.494 1.288h30c12.406 0 22.5-10.094 22.5-22.5v-60c0-12.406-10.094-22.5-22.5-22.5h-30c-2.627 0-5.148.457-7.494 1.288v-36.799h79.996c12.406 0 22.5 10.094 22.5 22.5z"/></g></svg>