<svg id="Capa_1" enable-background="new 0 0 512 512" height="512" viewBox="0 0 512 512" width="512" xmlns="http://www.w3.org/2000/svg"><g><g><path fill="#fff" d="m382.75 343.247c0-69.89-56.859-126.75-126.75-126.75s-126.75 56.86-126.75 126.75 56.859 126.75 126.75 126.75 126.75-56.86 126.75-126.75zm-238.5 0c0-61.619 50.131-111.75 111.75-111.75s111.75 50.131 111.75 111.75-50.131 111.75-111.75 111.75-111.75-50.131-111.75-111.75z"/><path fill="#fff" d="m281.909 306.347s-23.1 16.884-33.136 23.759c-4.548 3.115-8.036 7.91-7.756 13.861.358 7.63 6.638 13.908 14.268 14.264 5.95.277 10.789-3.179 13.857-7.758 6.942-10.363 23.374-33.52 23.374-33.52 2.929-2.93 2.929-7.678 0-10.607s-7.678-2.929-10.607.001z"/><path fill="#fff" d="m449.076 389.998-36.424-138.505c-9.635-36.64-41.74-62.721-79.152-65.056v-15.189h72.92c4.143 0 7.5-3.358 7.5-7.5s-3.357-7.5-7.5-7.5h-106.983c10.798-9.824 19.344-23.342 23.816-37.059.001-.002.001-.004.002-.006 5.726-17.619 4.797-34.142-2.704-47.819-8.431-15.178-23.524-24.321-41.454-25.086-5.376-.198-10.673.508-15.854 2.061-.747-12.925-3.715-28.475-18.232-37.668l-13.876-8.787c-4.286-2.715-9.662-2.477-13.693.604-4.003 3.059-5.634 8.14-4.154 12.944l4.071 13.223c2.046 6.647 5.407 12.826 9.8 18.184-15.366 2.276-28.188 10.996-35.723 24.56-7.482 13.641-8.411 30.165-2.684 47.79 4.778 14.657 13.429 27.696 23.725 37.059h-106.897c-4.143 0-7.5 3.358-7.5 7.5s3.357 7.5 7.5 7.5h72.92v15.189c-37.412 2.335-69.517 28.416-79.151 65.056l-36.426 138.505c-6.953 26.442-1.366 54.027 15.329 75.68s41.952 34.072 69.295 34.072h14.048c2.959 7.182 10.034 12.25 18.271 12.25h14.833c10.891 0 19.75-8.86 19.75-19.75 0-4.142-3.357-7.5-7.5-7.5s-7.5 3.358-7.5 7.5c0 2.619-2.131 4.75-4.75 4.75h-14.833c-2.619 0-4.75-2.131-4.75-4.75 0-4.142-3.357-7.5-7.5-7.5h-20.068c-22.655 0-43.582-10.29-57.416-28.231-13.833-17.941-18.462-40.797-12.701-62.706l36.426-138.506c8.369-31.83 37.202-54.06 70.115-54.06h2.02.01s.006 0 .01 0h139.98.01s.006 0 .01 0h2.02c32.913 0 61.746 22.231 70.116 54.061l36.425 138.505c5.761 21.91 1.132 44.765-12.701 62.707-13.834 17.941-34.761 28.231-57.416 28.231h-20.068c-4.143 0-7.5 3.358-7.5 7.5 0 2.619-2.131 4.75-4.75 4.75h-14.833c-2.619 0-4.75-2.131-4.75-4.75 0-4.142-3.357-7.5-7.5-7.5h-68.105c-4.143 0-7.5 3.358-7.5 7.5s3.357 7.5 7.5 7.5h62.081c2.959 7.182 10.034 12.25 18.271 12.25h14.833c8.236 0 15.312-5.068 18.271-12.25h14.048c27.343 0 52.6-12.419 69.295-34.072s22.281-49.238 15.327-75.681zm-212.09-366.655c6.398 4.051 9.794 10.805 10.981 22.153l-1.396-.918c-7.074-4.932-12.355-12.151-14.876-20.337l-1.625-5.278zm-33.97 91.204c-4.478-13.78-3.949-25.87 1.553-35.9 5.838-10.511 16.385-16.846 28.889-17.38 5.817-.222 11.634 1.11 17.259 3.932.547.274 1.091.556 1.629.856.001 0 .002.001.002.001.002.001.002.001.003.002.057.031.117.053.174.083.23.12.461.237.699.333.079.031.161.05.241.079.221.08.441.16.667.218.119.031.241.044.362.069.189.039.377.085.569.109.289.037.579.052.87.055.024 0 .048.005.072.005.323 0 .645-.022.966-.063.095-.012.188-.038.283-.054.223-.038.447-.075.667-.133.121-.032.237-.079.356-.117.19-.061.381-.118.567-.194.129-.053.252-.12.379-.181.146-.069.295-.129.437-.208 6.118-3.414 12.474-5.018 18.846-4.791 12.55.535 23.097 6.871 28.915 17.346 6.876 12.537 4.649 26.462 1.571 35.935-6.722 20.615-24.978 41.625-43.597 41.702l-20.587-.062c-15.857-.908-34.604-19.591-41.792-41.642zm115.484 71.7h-125v-14.999h125z"/><path fill="#fff" d="m329.844 351.009c.272-2.59.41-5.218.41-7.811-.001-14.115-4.032-27.89-11.659-39.835-2.229-3.492-6.867-4.515-10.357-2.286-3.491 2.229-4.515 6.866-2.285 10.357 6.084 9.531 9.301 20.515 9.302 31.764 0 2.071-.11 4.171-.328 6.242-3.18 30.249-28.49 53.06-58.875 53.06-2.072 0-4.173-.11-6.244-.328-30.25-3.179-53.061-28.49-53.061-58.876 0-2.071.11-4.171.328-6.242 3.18-30.25 28.491-53.061 58.876-53.061 2.071 0 4.172.11 6.243.328 8.959.942 17.36 3.814 24.968 8.538 3.518 2.184 8.144 1.103 10.328-2.417 2.185-3.519 1.103-8.143-2.416-10.328-9.548-5.927-20.082-9.531-31.312-10.711-2.591-.272-5.219-.41-7.812-.41-38.085 0-69.81 28.585-73.794 66.492-.272 2.59-.41 5.218-.41 7.811 0 38.085 28.586 69.81 66.492 73.794 2.591.272 5.219.41 7.812.41 38.085 0 69.809-28.585 73.794-66.491z"/></g></g></svg>